<svg xmlns="http://www.w3.org/2000/svg" viewBox="0 0 64 64" fill="none">
  <path d="M43.8 36.8c-2.6 0-5-.6-7.2-1.6L26 37.5l2.2-10.6a17.1 17.1 0 0 1-1.6-7.2C26.6 10.2 34.3 2.5 43.8 2.5S61 10.2 61 19.7s-7.7 17.1-17.2 17.1z" fill="#b5d7be"/>
  <path d="M40.6 50.2 37.9 47.4a3.5 3.5 0 0 0-5 0l-2.1 2.2a1.4 1.4 0 0 1-1.9.4c-3.1-1.4-6.2-3.5-9-6.3-2.8-2.7-4.8-5.8-6.2-9a1.4 1.4 0 0 1 .4-1.9l1.9-2c1.6-1.6 1.6-3.8.2-5.2l-2.8-2.7a4.7 4.7 0 0 0-6.6 0l-1.6 1.5c-1.7 1.8-2.5 4.3-2 6.8 1.2 6.2 4.8 12.9 10.5 18.7s12.5 9.3 18.7 10.5c2.5.5 5-.3 6.7-2l1.6-1.6a4.7 4.7 0 0 0 0-6.6z" fill="#0ab3a1"/>
</svg>
